<?xml version="1.0" encoding="utf-8"?>
<!-- Generator: Adobe Illustrator 23.0.1, SVG Export Plug-In . SVG Version: 6.00 Build 0)  -->
<svg version="1.1" id="Layer_1" xmlns="http://www.w3.org/2000/svg" xmlns:xlink="http://www.w3.org/1999/xlink" x="0px" y="0px"
	 viewBox="0 0 885.9 123.2" style="enable-background:new 0 0 885.9 123.2;" xml:space="preserve">
<style type="text/css">
	.st0{fill:#FFBD00;}
</style>
<title>Brushstroke</title>
<g>
	<g id="Layer_1-2">
		<path class="st0" d="M457.8,79.6c-13.6-2.8-7.5,2.2-21.1-0.7l-11.3-0.2c-0.4,2-7.3,1.1-11.3-0.2l-7.7,3.2
			c-0.3,1.5,2.1,3.6,6.1,4.5l-6.2,2.4l4.7,4.7l-24.4,1.3c-2.7-1.9-5.8-3.3-9.1-4c-2.7-0.6-2.8,0-3,1l-21.8-4
			c-0.7,3.6-9.6,5.4-16.8,6.1c0,0-42.1,5.1-42.6,7.6l-24.5,1.8c-0.7,3.6-23.4-3.3-24.2,0.8c-13.2,4-26.7,7.3-40.2,9.7
			c-0.5,2.6-38.2,6.4-38.8,9.5l-16.3-3.4l-9,2.4l-24.6-4.1l-10.1,1.1l-0.1,0.5c-0.2,1-4.4,0.7-7.1,0.1l-5.7,0.4
			c-5.1-1.1-10.3-1.3-15.5-0.6l-25.8-5.4l1.6-7.7c4.3-0.2,12.9-0.5,13.3-2.6c0.3-1.5-6.5-2.9-9.2-3.5L55.5,94l1.3,0.3
			c5.4,1.1,11.1,1.2,11.6-1.3c0.2-1,0.6-3.1-3.4-3.9c-6.8-1.4-11.4,0.3-16.8-0.8c-2.7-0.6-2.5-1.6-2.3-2.6c0.4-2,3.7-4,8.1-4.7
			c4.1,0.8,4.4-0.7,4.6-1.7C54.9,76.2,47.1,73,42,70.4c-4.1-0.8-2.5-1.6-2.3-2.6c0.3-1.5-2.4-2.1-5.1-2.7c0.5-2.5-4.8-4.2-10.3-4.8
			c-0.6-3.8-2.2-10-8.3-14.5c-6.8-1.4-9.2-3.5-16-4.9l0.6-9.5c0.3-1.5,2.1-3.3,6.4-3.5c0.4-2,4.2-6.6,11-5.2l3.7-4
			c12.2,2.5,15.3-5.3,27.5-2.8c17.6-2.7,66.2-11.8,89.2-7l9.1-2.9c8.5,0.2,17-0.2,23-1.6c6.8,1.4,11.2,0.7,9-2.4l17.8,3.2
			c1.3-6.1,22.4,1.5,23.3-3.1l4.1,0.9c9.5,2,8.5,0.2,9.1-2.9l14.9,3.1c14.3-0.7,25.8-1.5,41.3-1c0.4-2.1,3.3-2.6,8.7-1.4
			c4.1,0.9,26.5,1.8,26.7,0.8c19.4,1.9,37.3-2.3,57.8,1.4c5.1-0.3,10.3,0.1,15.4,1.1c0.5-2.5,4.5-1.2,8.5-0.3s4.3-0.2,4.5-1.2
			l34.7,3.5c5.5,0.6,26,4.3,26.6,1.3c9.7,1,38.2,6.9,35.3,0.4c5.5,0.6,39.8,6.1,40.5,2.6c9.8,0.4,21,1.2,31.8,3.4l16.8,7.8
			c-0.2,1-3.1,1.5-5.9,0.9l-5.3-1.6c0.2-1,0.7-3.6-2-4.1s-4.4,0.7-5.8,0.9l-13.7-2.3c-5.9,0.9-17.6,2.7-25.7,1l-8.6,0.4
			c-0.1,0.5-1.6,0.7-1.8,1.8l7.1-0.1l17.8,3.1c1.6-7.6,36.9,6.6,47.5,3c12.2,2.5,23.5,2.8,35.7,5.3c2.8,0.1,37.5,3.5,41.6,4.4
			c9.5,2,9.3,3,8.7,6.1l-6.8-1.4c-20.3-4.2-1,4.6-22.7,0.1c-6.8-1.4-12.6-0.5-19.4-1.9l-0.1,0.5c-0.4,2-4.8,2.7-11.6,1.3l-9,2.4
			c-0.8,4.1-15.8,1-23.9-0.7c-0.8,4.1-10.8-2.2-11.7,1.8l21.7,4.5c0.7-3.6,21.2,0.2,28,1.6l7.3-1.1l13.6,2.8
			c1.7-1.2,7.2-0.6,11.3,0.2l25.2,1.5l57,11.9l14.4-1.3l35.3,7.3l5.8-0.9c21.7,4.5,45.7,4.7,71.5,10.1c0.8,2.8,13.3,4.3,13,5.4
			s-6,1.4-7.4,1.7c-13.7-2.3-27.3-4.6-40.9-7.4l-5.8,0.9c-10.9-2.3-22.1-2.5-33-4.7c-9.4,4.4-19.6-7.8-21.8,2.9
			c-1.4-0.3-4.3,0.2-4.4,0.7c-0.2,1,9.3,3,12,3.6s9.5,2,9.2,3.5l-1.6,0.7l-14.9-3.1l-9,2.4l-16.6-1.8l-11.9-4.1l-2.7-0.6
			c0.2-1,28.1,1,28.3,0c0.1-0.5-0.8-2.8-4.9-3.7c-1.4-0.3-1.5,0.2-1.6,0.7l-15-2.6c-0.8,3.6-22.7,0.1-29.5-1.3
			c-0.6,3.1-11.3-0.2-16.7-1.3c-2.7-0.6-5.4-1.1-5.6-0.1c-8.8,1.4-20.1,1.2-29.9,0.7c12.4,1.5,40.5,2.6,51.4,4.8
			c0.4-2,4.5-1.2,8.6-0.3s15,2.6,14.7,4.1s-3.2,2-6.2,2.4c-1.2-0.8-2.4-2.1-3.8-2.4c-6.8-1.4-7.7,3.2-13.3,2.6
			c-20.7-2.7-37.8-2-58.8-3.2c-17.6-3.7-12.1,3.9-27.1,0.8c-1.4,6.6-22.7,0.1-33.4-2.7l-9,2.4c-10.9-2.3-22.2-2-33.4-2.7
			c-2.5-1.6-4.9-3.7-9-4.5c-1.4-0.3-1.6,0.7-1.7,1.2c-15.1-2.1-2.8,6.9-26.5,4.6l-10.4,2.1c-4.2-0.3-28.9-3.9-29.5-1.3
			c-0.4,2,17.2,5.7,16.9,7.2c-0.1,0.5-2.8,0-4.2-0.3c-9.5-2-15.6,0-23.8-1.2c1,1.8,2.1,3.6,1.8,5.2c-0.4,2-6.3,3-11.7,1.8
			c-5.8,0.4-14.3,0.8-21.1-0.7c-2.7-0.6-4-1.3-3.8-2.4c-2.5-1.6-7.6-4.2-7.4-5.3c0.3-1.5,15.4,1.1,18.1,1.6l12.9-0.5l3.6-3.5
			l13.1-1.5l-1.4-0.3C463.7,78.2,458.2,77.6,457.8,79.6z M314.5,107.9l7.1-7c1.5-0.2,46.4-5.3,50.5-4.4c1.4,0.3,1.2,0.8,1.1,1.3
			c2.6,1.1,6.4,3.4,6.1,4.5c-0.1,0.5-11.1-1.2-12.5-1c-10.9,2.8-22.2,4.2-33.5,4.2c-0.5,2.6-7.3,1.1-8,4.2L314.5,107.9z M375.6,86.5
			c4.4-0.7,18.9-2.5,19.4-4.5c0.1-0.5-1.2-0.8-2.6-1.1c-5,2.1-10.6,2.6-15.9,1.5c-1.4-0.3-4.1-0.8-4.3,0.2S373.1,84.9,375.6,86.5z
			 M492.2,84.1c2.9-0.4,11.6-1.3,15.7-0.5c1.4,0.3,2.6,1.1,2.5,1.6L492.2,84.1z M487.2,26.6c20.6,3.2,39.6,7.2,56.8,6
			c-0.1,0.5-0.3,1.5,1,1.8s4.8-2.7,6.3-3l10.5-2.6c5.4,1.1,21.6,5,22.3,1.5c-5.4-1.1-28.6-5.4-29.1-2.9l-24.9-3c-3,1-8.7,0.9-12.7,0
			l-9.8-0.4c-8.1-1.7-8.4-0.7-9,2.4l-5.3-1.6C489.2,23.9,487.5,25.1,487.2,26.6L487.2,26.6z M530.1,79.2l21.1,0.7l10.8,2.8
			c-7.4,1.7-27,0.2-38.1-0.5L530.1,79.2z M557.2,71.5l2.7,0.6c1.4,0.3,4.1,0.8,4.3-0.2c0.1-0.5-1.2-1.3-2.5-1.6
			C558.9,69.8,557.3,70.5,557.2,71.5L557.2,71.5z M582.6,72l4.2,0.3c0.1-0.5,0.3-1.5-1-1.8C583,70,582.6,71.5,582.6,72L582.6,72z
			 M622.6,70.2c-12.2-2.5-15.8,1-26.6-1.3c-1.4-0.3-8.2-1.7-8.4-0.7s7.9,2.7,9.3,3l16.3,3.4c3-1,8.6-0.3,12.6,0.5L622.6,70.2z"/>
	</g>
</g>
</svg>
