<svg id="Layer_1" data-name="Layer 1" xmlns="http://www.w3.org/2000/svg" viewBox="0 0 885.85 123.23"><defs><style>.cls-1{fill:#ffbd00;}</style></defs><title>brush</title><g id="Layer_1-2" data-name="Layer 1-2"><path class="cls-1" d="M457.76,79.63c-13.57-2.82-7.53,2.16-21.1-.66l-11.28-.22c-.43,2-7.32,1.14-11.28-.22l-7.74,3.19c-.32,1.53,2.07,3.62,6.14,4.47l-6.17,2.44L411,93.34l-24.35,1.32a25.21,25.21,0,0,0-9.07-4c-2.72-.56-2.82,0-3,1l-21.83-4c-.74,3.57-9.63,5.45-16.84,6.08,0,0-42.11,5.08-42.64,7.63l-24.46,1.84c-.74,3.57-23.39-3.27-24.24.82a345.35,345.35,0,0,1-40.25,9.73c-.53,2.55-38.15,6.44-38.79,9.5l-16.28-3.38-9,2.39-24.64-4.06-10.14,1.08-.1.51c-.21,1-4.39.69-7.11.12l-5.74.41a45.37,45.37,0,0,0-15.46-.56l-25.79-5.36,1.59-7.66c4.29-.17,12.85-.52,13.28-2.56.32-1.53-6.47-2.94-9.18-3.51L55.52,94l1.35.29c5.43,1.13,11.07,1.23,11.6-1.32.22-1,.64-3.06-3.43-3.91-6.79-1.41-11.39.3-16.82-.83-2.71-.57-2.5-1.59-2.29-2.61.43-2,3.67-4,8.06-4.71,4.07.85,4.39-.69,4.61-1.71C54.94,76.25,47.11,73,42,70.37c-4.07-.85-2.5-1.59-2.29-2.61.32-1.53-2.39-2.09-5.11-2.66.53-2.55-4.79-4.19-10.32-4.81-.62-3.85-2.16-10-8.31-14.5-6.79-1.42-9.18-3.51-16-4.92L.55,31.4c.32-1.53,2.1-3.29,6.39-3.47.42-2,4.2-6.58,11-5.17l3.67-4C33.83,21.31,36.88,13.42,49.1,16c17.56-2.74,66.17-11.8,89.24-7l9.1-2.9c8.46.17,17-.18,23-1.61,6.78,1.42,11.17.73,9-2.39l17.75,3.16c1.27-6.12,22.35,1.46,23.3-3.14l4.08.85c9.5,2,8.46.16,9.09-2.9l14.93,3.1c14.32-.74,25.81-1.55,41.27-1Q290.45-1,298.6.73c4.07.85,26.53,1.79,26.74.77,19.43,1.91,37.31-2.35,57.77,1.37a64.26,64.26,0,0,1,15.35,1.06C399,1.38,403,2.74,407,3.58s4.29-.17,4.5-1.19l34.7,3.48c5.53.62,26,4.35,26.64,1.28,9.71,1,38.21,6.89,35.3.42,5.54.62,39.79,6.15,40.53,2.58,9.82.44,21,1.17,31.85,3.42l16.8,7.76c-.22,1-3.14,1.48-5.86.91l-5.32-1.64c.21-1,.74-3.57-2-4.14s-4.39.69-5.85.92l-13.68-2.32c-5.86.92-17.56,2.74-25.7,1l-8.57.35c-.11.51-1.57.73-1.78,1.76l7.1-.12,17.75,3.15c1.59-7.65,36.86,6.6,47.52,3,12.22,2.54,23.5,2.75,35.71,5.29,2.83.06,37.5,3.54,41.57,4.39,9.5,2,9.29,3,8.65,6.06l-6.79-1.41c-20.35-4.24-1,4.59-22.67.07-6.78-1.41-12.63-.5-19.42-1.91l-.11.51c-.42,2-4.81,2.73-11.6,1.32l-9,2.39c-.85,4.08-15.78,1-23.92-.72C592.54,44.3,582.53,38,581.68,42l21.72,4.51c.74-3.57,21.2.15,28,1.57L638.71,47l13.57,2.82c1.67-1.25,7.21-.63,11.28.21l25.17,1.51,57,11.86,14.43-1.26,35.28,7.34,5.85-.92c21.71,4.5,45.71,4.7,71.53,10.07.83,2.83,13.26,4.35,13,5.37s-6,1.42-7.42,1.65c-13.68-2.31-27.35-4.62-40.93-7.44l-5.85.91c-10.86-2.26-22.14-2.48-33-4.73-9.41,4.43-19.61-7.81-21.84,2.91-1.36-.28-4.28.17-4.39.68-.21,1,9.29,3,12,3.56s9.5,2,9.18,3.51l-1.57.74-14.92-3.11-9,2.39-16.6-1.85-11.9-4.07-2.71-.57c.21-1,28.1,1,28.31,0,.1-.51-.83-2.83-4.9-3.68-1.36-.28-1.46.23-1.57.74l-15-2.6c-.75,3.58-22.67.08-29.46-1.33-.64,3.06-11.28-.22-16.71-1.35-2.71-.56-5.43-1.12-5.64-.1-8.78,1.37-20.06,1.15-29.88.7,12.43,1.52,40.52,2.58,51.38,4.83.43-2,4.5-1.19,8.57-.34s15,2.59,14.72,4.12-3.25,2-6.18,2.45c-1.25-.8-2.39-2.1-3.75-2.38C720,78.23,719,82.82,713.48,82.2c-20.67-2.7-37.81-2-58.8-3.18-17.64-3.67-12.13,3.87-27.06.76-1.38,6.64-22.67.08-33.42-2.69l-9,2.39c-10.86-2.26-22.25-2-33.43-2.69-2.5-1.58-4.89-3.68-9-4.53-1.36-.28-1.58.74-1.68,1.25-15.14-2.08-2.85,6.87-26.45,4.62l-10.35,2.11c-4.17-.34-28.92-3.89-29.45-1.34-.43,2,17.21,5.71,16.9,7.24-.11.52-2.82,0-4.18-.33-9.5-2-15.57,0-23.81-1.23,1,1.82,2.07,3.63,1.75,5.16-.42,2-6.27,3-11.7,1.83-5.75.4-14.32.75-21.1-.67q-4.08-.84-3.76-2.37c-2.5-1.59-7.61-4.25-7.4-5.27.32-1.53,15.36,1.06,18.07,1.63l12.85-.52L456,80.85l13.06-1.54L467.73,79C463.72,78.21,458.19,77.59,457.76,79.63ZM314.55,107.88l7.12-7c1.47-.23,46.4-5.26,50.48-4.42,1.35.29,1.25.8,1.14,1.31,2.61,1.07,6.36,3.45,6.15,4.47-.11.51-11.07-1.24-12.53-1a133.42,133.42,0,0,1-33.45,4.23c-.53,2.55-7.31,1.14-7.95,4.2Zm61.08-21.37C380,85.82,394.54,84.05,395,82c.1-.51-1.25-.79-2.61-1.07a26.35,26.35,0,0,1-15.88,1.48c-1.36-.28-4.08-.84-4.29.18S373.12,84.92,375.63,86.51Zm116.59-2.38c2.93-.45,11.6-1.31,15.68-.46,1.35.28,2.6,1.07,2.5,1.58Zm-5-57.49c20.57,3.22,39.57,7.17,56.81,6-.11.51-.32,1.53,1,1.82s4.81-2.73,6.28-3l10.45-2.61c5.43,1.12,21.61,5,22.35,1.45-5.42-1.13-28.6-5.42-29.13-2.87l-24.86-3c-3,1-8.67.86-12.74,0L507.57,24c-8.14-1.69-8.36-.67-9,2.39l-5.33-1.64c-4.06-.89-5.73.36-6.05,1.89Zm42.87,52.58,21.1.66,10.75,2.77c-7.42,1.65-27,.25-38.13-.47Zm27.08-7.68,2.71.57c1.36.28,4.07.85,4.29-.18.1-.51-1.15-1.3-2.51-1.58-2.74-.57-4.31.17-4.52,1.19Zm25.38.49,4.18.34c.11-.51.32-1.53-1-1.82-2.73-.55-3.1,1-3.21,1.45Zm40-1.79c-12.21-2.54-15.78,1-26.63-1.28-1.36-.29-8.15-1.7-8.36-.68s7.93,2.72,9.29,3l16.28,3.39c3-1,8.57-.35,12.64.5Z" transform="translate(0.03 -0.03)"/></g></svg>